<svg id="레이어_1" data-name="레이어 1" xmlns="http://www.w3.org/2000/svg" viewBox="0 0 25 25"><defs><style>.cls-1{fill:#38bde9;}.cls-2{fill:#fafafa;}</style></defs><title>a</title><path class="cls-1" d="M12.5,0A12.5,12.5,0,1,0,25,12.5,12.52,12.52,0,0,0,12.5,0Zm0,22.76A10.26,10.26,0,1,1,22.76,12.5,10.26,10.26,0,0,1,12.5,22.76Z"/><path class="cls-1" d="M12.5,2.24A10.26,10.26,0,1,0,22.76,12.5,10.26,10.26,0,0,0,12.5,2.24Zm0,18.28a8,8,0,1,1,8-8A8,8,0,0,1,12.5,20.52Z"/><circle class="cls-2" cx="12.5" cy="12.5" r="8.02" transform="translate(-1.84 22.84) rotate(-80.78)"/></svg>