<?xml version="1.0" encoding="utf-8"?>
<!-- Generator: Adobe Illustrator 23.0.1, SVG Export Plug-In . SVG Version: 6.00 Build 0)  -->
<!DOCTYPE svg PUBLIC "-//W3C//DTD SVG 1.1//EN" "http://www.w3.org/Graphics/SVG/1.1/DTD/svg11.dtd" [
	<!ENTITY ns_extend "http://ns.adobe.com/Extensibility/1.0/">
	<!ENTITY ns_ai "http://ns.adobe.com/AdobeIllustrator/10.0/">
	<!ENTITY ns_graphs "http://ns.adobe.com/Graphs/1.0/">
	<!ENTITY ns_vars "http://ns.adobe.com/Variables/1.0/">
	<!ENTITY ns_imrep "http://ns.adobe.com/ImageReplacement/1.0/">
	<!ENTITY ns_sfw "http://ns.adobe.com/SaveForWeb/1.0/">
	<!ENTITY ns_custom "http://ns.adobe.com/GenericCustomNamespace/1.0/">
	<!ENTITY ns_adobe_xpath "http://ns.adobe.com/XPath/1.0/">
]>
<svg version="1.1" id="레이어_1" xmlns:x="&ns_extend;" xmlns:i="&ns_ai;" xmlns:graph="&ns_graphs;"
	 xmlns="http://www.w3.org/2000/svg" xmlns:xlink="http://www.w3.org/1999/xlink" x="0px" y="0px" viewBox="0 0 25 25"
	 style="enable-background:new 0 0 25 25;" xml:space="preserve">
<style type="text/css">
	.st0{fill:#F5AB16;}
	.st1{fill:#FAFAFA;}
</style>
<metadata>
	<sfw  xmlns="&ns_sfw;">
		<slices></slices>
		<sliceSourceBounds  bottomLeftOrigin="true" height="25" width="25" x="0" y="-25"></sliceSourceBounds>
	</sfw>
</metadata>
<g>
	<path class="st0" d="M12.5,0C5.6,0,0,5.6,0,12.5S5.6,25,12.5,25S25,19.4,25,12.5S19.4,0,12.5,0z M12.5,22.8
		c-5.7,0-10.3-4.6-10.3-10.3c0-5.7,4.6-10.3,10.3-10.3s10.3,4.6,10.3,10.3C22.8,18.2,18.2,22.8,12.5,22.8z"/>
	<path class="st0" d="M12.5,2.2C6.8,2.2,2.2,6.8,2.2,12.5c0,5.7,4.6,10.3,10.3,10.3s10.3-4.6,10.3-10.3C22.8,6.8,18.2,2.2,12.5,2.2z
		 M12.5,20.5c-4.4,0-8-3.6-8-8c0-4.4,3.6-8,8-8s8,3.6,8,8C20.5,16.9,16.9,20.5,12.5,20.5z"/>
	<ellipse transform="matrix(0.1602 -0.9871 0.9871 0.1602 -1.8409 22.8363)" class="st1" cx="12.5" cy="12.5" rx="8" ry="8"/>
</g>
</svg>
